<svg width="20" height="20" viewBox="0 0 20 20" fill="none" xmlns="http://www.w3.org/2000/svg">
<path d="M10.8567 1.66797C11.7946 1.66952 12.2698 1.67449 12.6805 1.68671L12.8422 1.69199C13.0291 1.69864 13.2134 1.70697 13.4357 1.71739C14.3224 1.75836 14.9273 1.89864 15.4586 2.10489C16.0078 2.31669 16.4717 2.6028 16.9349 3.066C17.3974 3.52919 17.6836 3.99447 17.8961 4.54239C18.1016 5.07294 18.2419 5.6785 18.2836 6.5653C18.2935 6.78753 18.3015 6.97186 18.3081 7.15873L18.3133 7.32047C18.3255 7.73108 18.3311 8.20641 18.3328 9.14428L18.3335 9.76561C18.3336 9.84153 18.3336 9.91986 18.3336 10.0007L18.3335 10.2358L18.333 10.8572C18.3314 11.795 18.3265 12.2704 18.3142 12.6809L18.3089 12.8427C18.3023 13.0296 18.294 13.2139 18.2836 13.4361C18.2426 14.3229 18.1016 14.9278 17.8961 15.459C17.6842 16.0084 17.3974 16.4723 16.9349 16.9354C16.4717 17.3979 16.0057 17.684 15.4586 17.8965C14.9273 18.1021 14.3224 18.2424 13.4357 18.284C13.2134 18.2939 13.0291 18.302 12.8422 18.3085L12.6805 18.3138C12.2698 18.326 11.7946 18.3315 10.8567 18.3334L10.2353 18.334C10.1594 18.334 10.0811 18.334 10.0002 18.334H9.76516L9.14375 18.3334C8.20591 18.3319 7.7306 18.3269 7.31997 18.3147L7.15824 18.3094C6.97136 18.3028 6.78703 18.2944 6.56481 18.284C5.67801 18.2431 5.07384 18.1021 4.5419 17.8965C3.99328 17.6848 3.5287 17.3979 3.06551 16.9354C2.60231 16.4723 2.3169 16.0063 2.1044 15.459C1.89815 14.9278 1.75856 14.3229 1.7169 13.4361C1.707 13.2139 1.69892 13.0296 1.69238 12.8427L1.68714 12.6809C1.67495 12.2704 1.66939 11.795 1.66759 10.8572L1.66748 9.14428C1.66903 8.20641 1.67399 7.73108 1.68621 7.32047L1.69151 7.15873C1.69815 6.97186 1.70648 6.78753 1.7169 6.5653C1.75786 5.6778 1.89815 5.07364 2.1044 4.54239C2.3162 3.99378 2.60231 3.52919 3.06551 3.066C3.5287 2.6028 3.99398 2.31739 4.5419 2.10489C5.07315 1.89864 5.67731 1.75905 6.56481 1.71739C6.78703 1.70749 6.97136 1.69942 7.15824 1.69288L7.31997 1.68764C7.7306 1.67544 8.20591 1.66988 9.14375 1.66808L10.8567 1.66797ZM10.0002 5.83405C7.69781 5.83405 5.83356 7.70033 5.83356 10.0007C5.83356 12.3031 7.69984 14.1674 10.0002 14.1674C12.3027 14.1674 14.1669 12.3011 14.1669 10.0007C14.1669 7.6983 12.3006 5.83405 10.0002 5.83405ZM10.0002 7.50072C11.381 7.50072 12.5002 8.61961 12.5002 10.0007C12.5002 11.3814 11.3813 12.5007 10.0002 12.5007C8.6195 12.5007 7.50023 11.3819 7.50023 10.0007C7.50023 8.61994 8.61908 7.50072 10.0002 7.50072ZM14.3752 4.58405C13.8008 4.58405 13.3336 5.05064 13.3336 5.62501C13.3336 6.19939 13.8002 6.66669 14.3752 6.66669C14.9496 6.66669 15.4169 6.20011 15.4169 5.62501C15.4169 5.05064 14.9488 4.58334 14.3752 4.58405Z" fill="#F5F5FA"/>
</svg>
