<svg width="20" height="20" viewBox="0 0 20 20" fill="none" xmlns="http://www.w3.org/2000/svg">
<path d="M11.1431 1.7447C7.02093 1.17658 3.11152 3.73689 1.98387 7.74315C0.856208 11.7494 2.85592 15.9737 6.66892 17.6401C6.61887 17 6.66446 16.356 6.80418 15.7294C6.95803 15.0305 7.88434 11.177 7.88434 11.177C7.69976 10.7638 7.60744 10.3152 7.61382 9.8626C7.61382 8.6251 8.32794 7.70181 9.21642 7.70181C9.53933 7.697 9.84842 7.83292 10.0632 8.07419C10.2779 8.31547 10.3772 8.63827 10.335 8.95852C10.335 9.70868 9.853 10.8436 9.60233 11.9079C9.50117 12.304 9.59425 12.7246 9.85308 13.041C10.1119 13.3574 10.5057 13.5318 10.9139 13.5109C12.4953 13.5109 13.5563 11.4848 13.5563 9.09318C13.5563 7.25939 12.3415 5.88727 10.1036 5.88727C9.02167 5.84544 7.9699 6.24902 7.19352 7.00388C6.41714 7.75873 5.98403 8.79893 5.99519 9.88185C5.97136 10.4762 6.16305 11.0591 6.53495 11.5233C6.67801 11.6297 6.73321 11.8181 6.67021 11.9849C6.63175 12.1388 6.53495 12.5043 6.49648 12.6389C6.48027 12.731 6.42132 12.81 6.33763 12.8517C6.25394 12.8934 6.15542 12.893 6.07212 12.8505C4.91825 12.3889 4.37464 11.1193 4.37464 9.67027C4.37464 7.29787 6.36187 4.45743 10.3363 4.45743C13.4998 4.45743 15.6025 6.7721 15.6025 9.24702C15.6025 12.5043 13.789 14.9536 11.1082 14.9536C10.2938 14.9794 9.52275 14.5878 9.06325 13.9149C9.06325 13.9149 8.58117 15.8449 8.48625 16.2103C8.29251 16.8409 8.00649 17.4394 7.63754 17.9864C8.40642 18.2196 9.20592 18.3363 10.0094 18.3327C12.2197 18.3341 14.3398 17.4564 15.9024 15.8927C17.465 14.3291 18.3416 12.208 18.3391 9.99727C18.3367 5.83523 15.2653 2.31282 11.1431 1.7447Z" fill="#F5F5FA"/>
</svg>
