<svg width="28" height="30" viewBox="0 0 28 30" fill="none" xmlns="http://www.w3.org/2000/svg">
<path d="M14 22.5C15.65 22.5 17.0625 21.9125 18.2375 20.7375C19.4125 19.5625 20 18.15 20 16.5H8C8 18.15 8.5875 19.5625 9.7625 20.7375C10.9375 21.9125 12.35 22.5 14 22.5ZM6.5 10.5H12.5C12.5 9.675 12.2063 8.96875 11.6187 8.38125C11.0312 7.79375 10.325 7.5 9.5 7.5C8.675 7.5 7.96875 7.79375 7.38125 8.38125C6.79375 8.96875 6.5 9.675 6.5 10.5ZM15.5 10.5H21.5C21.5 9.675 21.2063 8.96875 20.6187 8.38125C20.0312 7.79375 19.325 7.5 18.5 7.5C17.675 7.5 16.9688 7.79375 16.3812 8.38125C15.7937 8.96875 15.5 9.675 15.5 10.5ZM14 30C12.125 30 10.3688 29.6437 8.73125 28.9312C7.09375 28.2188 5.66875 27.2562 4.45625 26.0437C3.24375 24.8312 2.28125 23.4062 1.56875 21.7687C0.85625 20.1313 0.5 18.375 0.5 16.5V10C0.5 4.47715 4.97715 0 10.5 0H17.5C23.0228 0 27.5 4.47715 27.5 10V16.5C27.5 18.375 27.1437 20.1313 26.4312 21.7687C25.7188 23.4062 24.7562 24.8312 23.5437 26.0437C22.3312 27.2562 20.9062 28.2188 19.2687 28.9312C17.6313 29.6437 15.875 30 14 30ZM14 27C16.9 27 19.375 25.975 21.425 23.925C23.475 21.875 24.5 19.4 24.5 16.5V10C24.5 6.13401 21.366 3 17.5 3H10.5C6.63401 3 3.5 6.13401 3.5 10V16.5C3.5 19.4 4.525 21.875 6.575 23.925C8.625 25.975 11.1 27 14 27Z" fill="#00853C"/>
</svg>
