<svg width="28" height="28" viewBox="0 0 28 28" fill="none" xmlns="http://www.w3.org/2000/svg">
<path d="M3.5 3.5V24.5H24.5V3.5H3.5ZM0.5 3.5C0.5 1.84314 1.84314 0.5 3.5 0.5H24.5C26.1569 0.5 27.5 1.84314 27.5 3.5V24.5C27.5 26.1569 26.1569 27.5 24.5 27.5H3.5C1.84314 27.5 0.5 26.1569 0.5 24.5V3.5ZM19.25 21.5C20.4926 21.5 21.5 20.4926 21.5 19.25C21.5 18.0074 20.4926 17 19.25 17C18.0074 17 17 18.0074 17 19.25C17 20.4926 18.0074 21.5 19.25 21.5ZM11 8.75C11 9.99265 9.99265 11 8.75 11C7.50736 11 6.5 9.99265 6.5 8.75C6.5 7.50736 7.50736 6.5 8.75 6.5C9.99265 6.5 11 7.50736 11 8.75ZM14 16.25C15.2426 16.25 16.25 15.2426 16.25 14C16.25 12.7574 15.2426 11.75 14 11.75C12.7574 11.75 11.75 12.7574 11.75 14C11.75 15.2426 12.7574 16.25 14 16.25Z" fill="#00853C"/>
</svg>
