<svg width="30" height="30" viewBox="0 0 30 30" fill="none" xmlns="http://www.w3.org/2000/svg">
<path d="M13.5 9.189V1.5C13.5 1.10218 13.658 0.720644 13.9393 0.43934C14.2206 0.158035 14.6022 0 15 0C15.3978 0 15.7794 0.158035 16.0607 0.43934C16.342 0.720644 16.5 1.10218 16.5 1.5V9.189C17.0505 9.33 17.571 9.549 18.048 9.831L21.363 6.516C21.5013 6.37264 21.6667 6.25825 21.8497 6.17951C22.0326 6.10077 22.2294 6.05926 22.4286 6.05739C22.6277 6.05552 22.8253 6.09333 23.0097 6.16862C23.1941 6.24391 23.3616 6.35517 23.5026 6.49591C23.6435 6.63665 23.755 6.80405 23.8306 6.98833C23.9061 7.17262 23.9442 7.37011 23.9426 7.56928C23.941 7.76845 23.8998 7.96531 23.8213 8.14837C23.7428 8.33143 23.6287 8.49703 23.4855 8.6355L20.1705 11.952C20.451 12.429 20.67 12.9495 20.811 13.5H28.5C28.8978 13.5 29.2794 13.658 29.5607 13.9393C29.842 14.2206 30 14.6022 30 15C30 15.3978 29.842 15.7794 29.5607 16.0607C29.2794 16.342 28.8978 16.5 28.5 16.5H20.811C20.67 17.0505 20.451 17.571 20.169 18.048L23.484 21.363C23.6274 21.5013 23.7417 21.6667 23.8205 21.8497C23.8992 22.0326 23.9407 22.2294 23.9426 22.4286C23.9445 22.6277 23.9067 22.8253 23.8314 23.0097C23.7561 23.1941 23.6448 23.3616 23.5041 23.5026C23.3634 23.6435 23.196 23.755 23.0117 23.8306C22.8274 23.9061 22.6299 23.9442 22.4307 23.9426C22.2315 23.941 22.0347 23.8998 21.8516 23.8213C21.6686 23.7428 21.503 23.6287 21.3645 23.4855L18.048 20.1705C17.5647 20.4558 17.0436 20.6714 16.5 20.811V28.5C16.5 28.8978 16.342 29.2794 16.0607 29.5607C15.7794 29.842 15.3978 30 15 30C14.6022 30 14.2206 29.842 13.9393 29.5607C13.658 29.2794 13.5 28.8978 13.5 28.5V20.811C12.9564 20.6709 12.4352 20.4548 11.952 20.169L8.637 23.484C8.35429 23.7574 7.97549 23.9089 7.58219 23.9058C7.18889 23.9026 6.81256 23.7451 6.53424 23.4672C6.25593 23.1893 6.09791 22.8132 6.09422 22.4199C6.09053 22.0266 6.24146 21.6476 6.5145 21.3645L9.8295 18.048C9.54475 17.5646 9.32963 17.0435 9.1905 16.5H1.5C1.10218 16.5 0.720644 16.342 0.43934 16.0607C0.158035 15.7794 0 15.3978 0 15C0 14.6022 0.158035 14.2206 0.43934 13.9393C0.720644 13.658 1.10218 13.5 1.5 13.5H9.189C9.33 12.9495 9.549 12.429 9.831 11.952L6.516 8.637C6.24256 8.35429 6.09109 7.97549 6.09423 7.58219C6.09736 7.18889 6.25485 6.81256 6.53277 6.53424C6.81069 6.25593 7.1868 6.09791 7.5801 6.09422C7.97339 6.09053 8.3524 6.24146 8.6355 6.5145L11.952 9.8295C12.4354 9.54475 12.9565 9.32813 13.5 9.189ZM15 18C14.2044 18 13.4413 17.6839 12.8787 17.1213C12.3161 16.5587 12 15.7956 12 15C12 14.2044 12.3161 13.4413 12.8787 12.8787C13.4413 12.3161 14.2044 12 15 12C15.7956 12 16.5587 12.3161 17.1213 12.8787C17.6839 13.4413 18 14.2044 18 15C18 15.7956 17.6839 16.5587 17.1213 17.1213C16.5587 17.6839 15.7956 18 15 18ZM13.5 25.977L12.9105 26.5665C12.6333 26.8433 12.2576 26.9986 11.866 26.9985C11.4743 26.9984 11.0987 26.8427 10.8217 26.5658C10.5448 26.2888 10.3891 25.9132 10.389 25.5215C10.3889 25.1299 10.5442 24.7542 10.821 24.477L13.5 21.798V25.977ZM16.5 21.798L19.179 24.477C19.4558 24.7542 19.6111 25.1299 19.611 25.5215C19.6109 25.9132 19.4552 26.2888 19.1783 26.5658C18.9013 26.8427 18.5257 26.9984 18.134 26.9985C17.7424 26.9986 17.3667 26.8433 17.0895 26.5665L16.5 25.977V21.798ZM16.5 4.023L17.0895 3.4335C17.3667 3.15674 17.7424 3.00136 18.134 3.0015C18.5257 3.00164 18.9013 3.15729 19.1783 3.43425C19.4552 3.7112 19.6109 4.0868 19.611 4.47847C19.6111 4.87014 19.4558 5.24585 19.179 5.523L16.5 8.202V4.023ZM13.5 8.202L10.821 5.523C10.5442 5.24585 10.3889 4.87014 10.389 4.47847C10.3891 4.0868 10.5448 3.7112 10.8217 3.43425C11.0987 3.15729 11.4743 3.00164 11.866 3.0015C12.2576 3.00136 12.6333 3.15674 12.9105 3.4335L13.5 4.023V8.202ZM25.977 16.5L26.5665 17.0895C26.8433 17.3667 26.9986 17.7424 26.9985 18.134C26.9984 18.5257 26.8427 18.9013 26.5658 19.1783C26.2888 19.4552 25.9132 19.6109 25.5215 19.611C25.1299 19.6111 24.7542 19.4558 24.477 19.179L21.798 16.5H25.977ZM21.798 13.5L24.477 10.821C24.7542 10.5442 25.1299 10.3889 25.5215 10.389C25.9132 10.3891 26.2888 10.5448 26.5658 10.8217C26.8427 11.0987 26.9984 11.4743 26.9985 11.866C26.9986 12.2576 26.8433 12.6333 26.5665 12.9105L25.977 13.5H21.798ZM4.023 13.5L3.4335 12.9105C3.15674 12.6333 3.00136 12.2576 3.0015 11.866C3.00164 11.4743 3.15729 11.0987 3.43425 10.8217C3.7112 10.5448 4.0868 10.3891 4.47847 10.389C4.87014 10.3889 5.24585 10.5442 5.523 10.821L8.202 13.5H4.023ZM8.202 16.5L5.523 19.179C5.24585 19.4558 4.87014 19.6111 4.47847 19.611C4.0868 19.6109 3.7112 19.4552 3.43425 19.1783C3.15729 18.9013 3.00164 18.5257 3.0015 18.134C3.00136 17.7424 3.15674 17.3667 3.4335 17.0895L4.023 16.5H8.202Z" fill="#00853C"/>
</svg>
