<svg width="28" height="32" viewBox="0 0 28 32" fill="none" xmlns="http://www.w3.org/2000/svg">
<path d="M6.50732 10.999V7.99902C6.50732 3.85689 9.86519 0.499023 14.0074 0.499023C18.1495 0.499023 21.5074 3.85689 21.5074 7.99902V10.999H26.0074C26.8358 10.999 27.5074 11.6706 27.5074 12.499V30.4991C27.5074 31.3274 26.8358 31.9991 26.0074 31.9991H2.00732C1.1789 31.9991 0.507324 31.3274 0.507324 30.4991V12.499C0.507324 11.6706 1.1789 10.999 2.00732 10.999H6.50732ZM6.50732 13.999H3.50732V28.9991H24.5074V13.999H21.5074V16.9991H18.5074V13.999H9.50732V16.9991H6.50732V13.999ZM9.50732 10.999H18.5074V7.99902C18.5074 5.51374 16.4926 3.49902 14.0074 3.49902C11.522 3.49902 9.50732 5.51374 9.50732 7.99902V10.999Z" fill="#00853C"/>
</svg>
