<svg width="36" height="36" viewBox="0 0 36 36" fill="none" xmlns="http://www.w3.org/2000/svg">
<path d="M18.0074 33.0038C9.72306 33.0038 3.00732 26.2882 3.00732 18.0038C3.00732 9.71963 9.72306 3.00391 18.0074 3.00391C26.2916 3.00391 33.0074 9.71963 33.0074 18.0038C33.0074 26.2882 26.2916 33.0038 18.0074 33.0038ZM18.0074 30.0038C24.6348 30.0038 30.0074 24.6313 30.0074 18.0038C30.0074 11.3765 24.6348 6.00391 18.0074 6.00391C11.3799 6.00391 6.00732 11.3765 6.00732 18.0038C6.00732 24.6313 11.3799 30.0038 18.0074 30.0038ZM15.0824 16.5038H22.5074V19.5038H15.0824C15.4298 21.2156 16.9431 22.5038 18.7574 22.5038C19.6802 22.5038 20.525 22.1707 21.1782 21.6178L23.7297 23.3188C22.496 24.662 20.7249 25.5038 18.7574 25.5038C15.2829 25.5038 12.4216 22.8788 12.0485 19.5038H10.5073V16.5038H12.0485C12.4216 13.1289 15.2829 10.5039 18.7574 10.5039C20.7249 10.5039 22.496 11.3458 23.7297 12.689L21.1784 14.39C20.5251 13.8372 19.6802 13.5039 18.7574 13.5039C16.9431 13.5039 15.4298 14.7922 15.0824 16.5038Z" fill="#00853C"/>
</svg>
