<svg width="35" height="29" viewBox="0 0 35 29" fill="none" xmlns="http://www.w3.org/2000/svg">
<path d="M27.8639 3.13604C30.0575 5.3342 30.8821 8.37508 30.3386 11.2052C31.1921 11.4458 31.998 11.9003 32.6707 12.568C34.7765 14.6585 34.7765 18.048 32.6707 20.1386L24.5 28.25L19.967 23.75L15.4999 28.2275L2.78207 15.4895C-0.374427 11.9555 -0.25644 6.52852 3.13604 3.13604C6.53236 -0.260274 11.9678 -0.374694 15.5015 2.7928C19.025 -0.369999 24.47 -0.264999 27.8639 3.13604ZM18.443 14.6969C17.519 15.6142 17.519 17.0923 18.443 18.0095L24.5 24.0227L30.557 18.0095C31.481 17.0923 31.481 15.6142 30.557 14.6969C29.621 13.7677 28.0943 13.7677 27.155 14.7002L24.4969 17.3309L22.3865 15.2375L21.8417 14.6969C20.9057 13.7677 19.379 13.7677 18.443 14.6969ZM5.25736 5.25736C3.02275 7.49197 2.91056 11.071 4.9699 13.4348L15.4999 23.9815L17.8385 21.638L16.3294 20.1386C14.2235 18.048 14.2235 14.6585 16.3294 12.568C18.4352 10.4774 21.8495 10.4774 23.9554 12.568L24.4994 13.1077L25.0447 12.568C25.6816 11.9357 26.4381 11.4946 27.242 11.2448C27.8654 9.19366 27.3587 6.87683 25.7405 5.25515C23.4918 3.00191 19.8614 2.91052 17.5055 5.02531L15.5029 6.82286L13.4991 5.02672C11.1365 2.90896 7.51259 3.00212 5.25736 5.25736Z" fill="#00853C"/>
</svg>
