<svg width="30" height="31" viewBox="0 0 30 31" fill="none" xmlns="http://www.w3.org/2000/svg">
<path d="M27.975 12.0621L25.875 9.96212L27 8.79962L22.2 3.99962L21.0375 5.12462L18.9 2.98712L20.025 1.82462C20.6 1.24962 21.3125 0.968368 22.1625 0.980868C23.0125 0.993368 23.725 1.28712 24.3 1.86212L29.1375 6.69962C29.7125 7.27462 30 7.98087 30 8.81837C30 9.65587 29.7125 10.3621 29.1375 10.9371L27.975 12.0621ZM9.97498 30.0996C9.39998 30.6746 8.69373 30.9621 7.85623 30.9621C7.01873 30.9621 6.31248 30.6746 5.73748 30.0996L0.899976 25.2621C0.324976 24.6871 0.0374756 23.9809 0.0374756 23.1434C0.0374756 22.3059 0.324976 21.5996 0.899976 21.0246L2.02498 19.8996L4.16248 22.0371L2.99998 23.1621L7.83748 27.9996L8.96248 26.8371L11.1 28.9746L9.97498 30.0996ZM24.8625 17.4996L27 15.3621L15.6375 3.99962L13.5 6.13712L24.8625 17.4996ZM14.3625 27.9996L16.5 25.8246L5.17498 14.4996L2.99998 16.6371L14.3625 27.9996ZM14.1375 19.2246L18.2625 15.1371L15.8625 12.7371L11.775 16.8621L14.1375 19.2246ZM16.5 30.0996C15.925 30.6746 15.2125 30.9621 14.3625 30.9621C13.5125 30.9621 12.8 30.6746 12.225 30.0996L0.899976 18.7746C0.324976 18.1996 0.0374756 17.4871 0.0374756 16.6371C0.0374756 15.7871 0.324976 15.0746 0.899976 14.4996L3.03748 12.3621C3.61248 11.7871 4.31873 11.4996 5.15623 11.4996C5.99373 11.4996 6.69998 11.7871 7.27498 12.3621L9.63748 14.7246L13.7625 10.5996L11.4 8.27462C10.825 7.69962 10.5375 6.98712 10.5375 6.13712C10.5375 5.28712 10.825 4.57462 11.4 3.99962L13.5375 1.86212C14.1125 1.28712 14.8187 0.999618 15.6562 0.999618C16.4937 0.999618 17.2 1.28712 17.775 1.86212L29.1375 13.2246C29.7125 13.7996 30 14.5059 30 15.3434C30 16.1809 29.7125 16.8871 29.1375 17.4621L27 19.5996C26.425 20.1746 25.7125 20.4621 24.8625 20.4621C24.0125 20.4621 23.3 20.1746 22.725 19.5996L20.4 17.2371L16.275 21.3621L18.6375 23.7246C19.2125 24.2996 19.5 25.0059 19.5 25.8434C19.5 26.6809 19.2125 27.3871 18.6375 27.9621L16.5 30.0996Z" fill="#00853C"/>
</svg>
