<svg width="16" height="30" viewBox="0 0 16 30" fill="none" xmlns="http://www.w3.org/2000/svg">
<path d="M12.5 13.5V7.5C12.5 6.30653 12.0259 5.16193 11.182 4.31802C10.3381 3.47411 9.19347 3 8 3C6.80653 3 5.66193 3.47411 4.81802 4.31802C3.97411 5.16193 3.5 6.30653 3.5 7.5V13.5H12.5ZM12.5 16.5H3.5V22.5C3.5 23.6935 3.97411 24.8381 4.81802 25.682C5.66193 26.5259 6.80653 27 8 27C9.19347 27 10.3381 26.5259 11.182 25.682C12.0259 24.8381 12.5 23.6935 12.5 22.5V16.5ZM8 0C9.98912 0 11.8968 0.790176 13.3033 2.1967C14.7098 3.60322 15.5 5.51088 15.5 7.5V22.5C15.5 24.4891 14.7098 26.3968 13.3033 27.8033C11.8968 29.2098 9.98912 30 8 30C6.01088 30 4.10322 29.2098 2.6967 27.8033C1.29018 26.3968 0.5 24.4891 0.5 22.5L0.5 7.5C0.5 5.51088 1.29018 3.60322 2.6967 2.1967C4.10322 0.790176 6.01088 0 8 0Z" fill="#00853C"/>
</svg>
