<svg width="30" height="30" viewBox="0 0 30 30" fill="none" xmlns="http://www.w3.org/2000/svg">
<path d="M10.5 3C12.1569 3 13.5 4.34314 13.5 6V16.2407C12.1587 15.2059 10.449 14.5958 8.4966 14.2704L8.0034 17.2296C10.0743 17.5747 11.3961 18.2292 12.2103 19.1112C13.005 19.972 13.5 21.2505 13.5 23.25C13.5 25.3211 11.8211 27 9.75 27C7.67894 27 6 25.3211 6 23.25V22.7239C6.6451 22.9389 7.31451 23.1149 8.0034 23.2296L8.4966 20.2704C7.38224 20.0847 6.2628 19.6716 5.14363 19.1399C3.87235 18.5359 3 17.2485 3 15.75C3 14.4979 3.31142 13.5127 3.83811 12.7885C4.35662 12.0756 5.16285 11.5055 6.36381 11.2052L7.5 10.9212V6C7.5 4.34314 8.84315 3 10.5 3ZM15 2.03127C13.9007 0.78564 12.2921 0 10.5 0C7.18629 0 4.5 2.68629 4.5 6V8.66133C3.22342 9.17466 2.17715 9.97178 1.41189 11.024C0.438585 12.3623 0 14.0021 0 15.75C0 18.0978 1.19348 20.1551 3 21.3633V23.25C3 26.978 6.02208 30 9.75 30C11.8704 30 13.7625 29.0223 15 27.493C16.2375 29.0223 18.1296 30 20.25 30C23.978 30 27 26.978 27 23.25V21.3633C28.8066 20.1551 30 18.0978 30 15.75C30 14.0021 29.5614 12.3623 28.5881 11.024C27.8229 9.97178 26.7766 9.17466 25.5 8.66133V6C25.5 2.68629 22.8137 0 19.5 0C17.708 0 16.0993 0.78564 15 2.03127ZM24 22.7239V23.25C24 25.3211 22.3211 27 20.25 27C18.1789 27 16.5 25.3211 16.5 23.25C16.5 21.2505 16.995 19.972 17.7897 19.1112C18.6039 18.2292 19.9257 17.5747 21.9966 17.2296L21.5034 14.2704C19.551 14.5958 17.8413 15.2059 16.5 16.2407V6C16.5 4.34314 17.8431 3 19.5 3C21.1569 3 22.5 4.34314 22.5 6V10.9212L23.6362 11.2052C24.8371 11.5055 25.6434 12.0756 26.1619 12.7885C26.6886 13.5127 27 14.4979 27 15.75C27 17.2485 26.1276 18.5359 24.8563 19.1399C23.7372 19.6716 22.6178 20.0847 21.5034 20.2704L21.9966 23.2296C22.6856 23.1149 23.3549 22.9389 24 22.7239Z" fill="#00853C"/>
</svg>
