<svg width="30" height="22" viewBox="0 0 30 22" fill="none" xmlns="http://www.w3.org/2000/svg">
<path d="M7.50001 21.5001C6.41518 21.4995 5.34339 21.2636 4.35858 20.8086C3.37377 20.3536 2.49939 19.6903 1.79577 18.8646C1.09214 18.0389 0.576008 17.0704 0.282986 16.0259C-0.0100368 14.9814 -0.0729771 13.8858 0.0985066 12.8146C0.26999 11.7434 0.671816 10.7221 1.27626 9.82128C1.88071 8.92043 2.67339 8.16144 3.59961 7.59666C4.52584 7.03188 5.56356 6.67476 6.64119 6.54993C7.71882 6.4251 8.8107 6.53553 9.84151 6.87361C10.7934 4.65005 12.4835 2.82317 14.6264 1.70153C16.7694 0.579884 19.2337 0.232233 21.6033 0.717294C23.9729 1.20235 26.1025 2.4904 27.6323 4.36386C29.1621 6.23733 29.9984 8.58138 30 11.0001C30 13.7849 28.8938 16.4556 26.9246 18.4247C24.9555 20.3939 22.2848 21.5001 19.5 21.5001H7.50001ZM7.50001 18.5001H19.5C20.8545 18.4995 22.1835 18.1321 23.3459 17.4369C24.5084 16.7417 25.4609 15.7447 26.1023 14.5518C26.7437 13.3588 27.0501 12.0145 26.9889 10.6614C26.9277 9.30831 26.5013 7.99706 25.7548 6.86685C25.0084 5.73664 23.9698 4.82967 22.7494 4.24222C21.529 3.65478 20.1722 3.4088 18.8232 3.53039C17.4743 3.65199 16.1834 4.13662 15.0877 4.93284C13.992 5.72906 13.1323 6.80714 12.6 8.05261L11.52 10.5816L8.90701 9.72361C8.28868 9.5211 7.63378 9.4551 6.98747 9.53014C6.34115 9.60519 5.7188 9.81949 5.16332 10.1583C4.60783 10.4971 4.13242 10.9523 3.76985 11.4926C3.40729 12.0329 3.1662 12.6453 3.06321 13.2878C2.96022 13.9302 2.99777 14.5874 3.17327 15.2139C3.34878 15.8405 3.65806 16.4215 4.0798 16.9169C4.50155 17.4124 5.02572 17.8105 5.61618 18.0838C6.20665 18.3572 6.84936 18.4992 7.50001 18.5001Z" fill="#00853C"/>
</svg>
