<svg width="30" height="30" viewBox="0 0 30 30" fill="none" xmlns="http://www.w3.org/2000/svg">
<path d="M15 0C23.2842 0 30 6.71572 30 15C30 23.2842 23.2842 30 15 30C6.71572 30 0 23.2842 0 15C0 6.71572 6.71572 0 15 0ZM17.5042 20.9998H12.4943L10.4258 23.8454L11.2566 26.4046C12.4346 26.791 13.6929 27 15 27C16.3071 27 17.5654 26.791 18.7434 26.4046L19.5728 23.8454L17.5042 20.9998ZM4.94031 13.3078L3.00333 14.7142L3 15C3 17.5945 3.82341 19.9968 5.22315 21.9595L8.08881 21.9599L10.0718 19.2298L8.52981 14.4749L4.94031 13.3078ZM25.0583 13.3078L21.4688 14.4749L19.9268 19.2298L21.9098 21.9599L24.7769 21.9595C26.1767 19.9968 27 17.5945 27 15L26.9955 14.715L25.0583 13.3078ZM15 11.304L11.484 13.857L12.828 18H17.1705L18.5145 13.857L15 11.304ZM18.4371 3.49949L16.4993 4.9094V8.68489L20.5402 11.6204L23.8988 10.5299L24.73 7.9752C23.2005 5.86028 20.9982 4.26381 18.4371 3.49949ZM11.5614 3.49994C9.00031 4.26461 6.79824 5.86143 5.26892 7.97667L6.0998 10.5299L9.45831 11.6204L13.4993 8.68489V4.9094L11.5614 3.49994Z" fill="#00853C"/>
</svg>
