<svg width="28" height="29" viewBox="0 0 28 29" fill="none" xmlns="http://www.w3.org/2000/svg">
<path d="M27.497 0.5V3.5C27.497 17.9411 19.4382 24.5 9.49707 24.5L3.86115 24.4999C3.6179 25.868 3.49707 27.3605 3.49707 29H0.497074C0.497074 26.9559 0.670639 25.0996 1.01571 23.4023C0.669949 21.4611 0.497074 18.8264 0.497074 15.5C0.497074 7.21572 7.2128 0.5 15.497 0.5C18.497 0.5 21.497 2 27.497 0.5ZM15.497 3.5C8.86965 3.5 3.49707 8.87258 3.49707 15.5C3.49707 16.0436 3.50187 16.5667 3.51138 17.0689C5.39297 14.1026 8.14853 11.7572 11.7528 9.69764L13.2413 12.3023C8.95895 14.7494 6.11831 17.5302 4.65993 21.4997L9.49707 21.5C18.5198 21.5 24.3038 15.5403 24.4923 4.08149C22.4343 4.2817 20.5222 4.154 18.1631 3.80013C16.4365 3.54113 16.0982 3.5 15.497 3.5Z" fill="#00853C"/>
</svg>
