<svg width="30" height="28" viewBox="0 0 30 28" fill="none" xmlns="http://www.w3.org/2000/svg">
<path d="M28.5074 0.5C29.3358 0.5 30.0074 1.17156 30.0074 2V10.25C27.9363 10.25 26.2574 11.929 26.2574 14C26.2574 16.0711 27.9363 17.75 30.0074 17.75V26C30.0074 26.8285 29.3358 27.5 28.5074 27.5H1.50732C0.678904 27.5 0.00732422 26.8285 0.00732422 26V17.75C2.07839 17.75 3.75732 16.0711 3.75732 14C3.75732 11.929 2.07839 10.25 0.00732422 10.25V2C0.00732422 1.17156 0.678904 0.5 1.50732 0.5H28.5074ZM27.0074 3.5H3.00732V7.952L3.24116 8.0736C5.24903 9.17157 6.63774 11.2603 6.74997 13.6823L6.75732 14C6.75732 16.5563 5.33633 18.7807 3.24116 19.9264L3.00732 20.0465V24.5H27.0074V20.0465L26.7735 19.9264C24.7656 18.8284 23.3769 16.7398 23.2647 14.3177L23.2574 14C23.2574 11.4437 24.6783 9.2193 26.7735 8.0736L27.0074 7.952V3.5Z" fill="#00853C"/>
</svg>
