<svg width="24" height="30" viewBox="0 0 24 30" fill="none" xmlns="http://www.w3.org/2000/svg">
<path d="M3 6.579V12C3.00021 13.9281 3.41253 15.834 4.20932 17.5897C5.00612 19.3455 6.16899 20.9108 7.62 22.1805L12 26.013L16.38 22.1805C17.8311 20.9108 18.994 19.3456 19.7908 17.5898C20.5876 15.834 20.9999 13.9281 21 12V6.579L12 3.204L3 6.579ZM0.9735 4.134L12 0L23.0265 4.1355C23.3124 4.24265 23.5587 4.43448 23.7327 4.68536C23.9066 4.93623 23.9999 5.23422 24 5.5395V12C24 16.7655 21.942 21.3 18.3555 24.4395L12 30L5.6445 24.4395C3.87144 22.8881 2.45054 20.9756 1.47704 18.8301C0.503534 16.6847 -6.47583e-05 14.356 6.24591e-09 12V5.5395C0.000114636 5.23422 0.0933765 4.93623 0.267328 4.68536C0.44128 4.43448 0.68764 4.24115 0.9735 4.134ZM14.121 13.5L16.242 15.621C16.3853 15.7594 16.4995 15.9249 16.5782 16.1079C16.6568 16.2909 16.6981 16.4877 16.6999 16.6869C16.7016 16.8861 16.6637 17.0836 16.5882 17.2679C16.5128 17.4523 16.4014 17.6198 16.2606 17.7606C16.1198 17.9014 15.9523 18.0128 15.7679 18.0882C15.5836 18.1637 15.3861 18.2016 15.1869 18.1999C14.9877 18.1981 14.7909 18.1568 14.6079 18.0782C14.4249 17.9995 14.2594 17.8853 14.121 17.742L12 15.621L9.879 17.742C9.5961 18.0152 9.21719 18.1664 8.8239 18.163C8.4306 18.1596 8.05438 18.0018 7.77627 17.7237C7.49816 17.4456 7.34041 17.0694 7.33699 16.6761C7.33357 16.2828 7.48476 15.9039 7.758 15.621L9.879 13.5L7.758 11.379C7.61473 11.2406 7.50046 11.0751 7.42185 10.8921C7.34323 10.7091 7.30186 10.5123 7.30012 10.3131C7.29839 10.1139 7.33635 9.91641 7.41177 9.73207C7.48719 9.54772 7.59857 9.38025 7.73941 9.23941C7.88025 9.09857 8.04772 8.98719 8.23207 8.91177C8.41641 8.83635 8.61393 8.79839 8.8131 8.80013C9.01227 8.80186 9.2091 8.84323 9.39211 8.92185C9.57511 9.00046 9.74063 9.11473 9.879 9.258L12 11.379L14.121 9.258C14.2594 9.11473 14.4249 9.00046 14.6079 8.92185C14.7909 8.84323 14.9877 8.80186 15.1869 8.80013C15.3861 8.79839 15.5836 8.83635 15.7679 8.91177C15.9523 8.98719 16.1198 9.09857 16.2606 9.23941C16.4014 9.38025 16.5128 9.54772 16.5882 9.73207C16.6637 9.91641 16.7016 10.1139 16.6999 10.3131C16.6981 10.5123 16.6568 10.7091 16.5782 10.8921C16.4995 11.0751 16.3853 11.2406 16.242 11.379L14.121 13.5Z" fill="#00853C"/>
</svg>
