<svg width="30" height="28" viewBox="0 0 30 28" fill="none" xmlns="http://www.w3.org/2000/svg">
<path d="M0.00732422 10.25V2C0.00732422 1.17156 0.678904 0.5 1.50732 0.5H28.5074C29.3358 0.5 30.0074 1.17156 30.0074 2V10.25C27.9363 10.25 26.2574 11.929 26.2574 14C26.2574 16.0711 27.9363 17.75 30.0074 17.75V26C30.0074 26.8285 29.3358 27.5 28.5074 27.5H1.50732C0.678904 27.5 0.00732422 26.8285 0.00732422 26V17.75C2.07839 17.75 3.75732 16.0711 3.75732 14C3.75732 11.929 2.07839 10.25 0.00732422 10.25ZM18.0074 3.5H3.00732V7.95164C5.2299 9.05616 6.75732 11.3497 6.75732 14C6.75732 16.6502 5.2299 18.9439 3.00732 20.0483V24.5H18.0074V3.5ZM21.0074 3.5V24.5H27.0074V20.0483C24.7848 18.9439 23.2574 16.6502 23.2574 14C23.2574 11.3497 24.7848 9.05616 27.0074 7.95164V3.5H21.0074Z" fill="#00853C"/>
</svg>
