<svg width="28" height="34" viewBox="0 0 28 34" fill="none" xmlns="http://www.w3.org/2000/svg">
<path d="M14 0.5L26.3253 3.23897C27.0117 3.39149 27.5 4.00021 27.5 4.70326V19.6834C27.5 22.6925 25.9961 25.5026 23.4923 27.1718L14 33.5L4.5077 27.1718C2.00392 25.5026 0.5 22.6925 0.5 19.6834V4.70326C0.5 4.00021 0.988295 3.39149 1.67461 3.23897L14 0.5ZM14 3.57319L3.5 5.90651V19.6834C3.5 21.6895 4.5026 23.5628 6.1718 24.6757L14 29.8945L21.8282 24.6757C23.4974 23.5628 24.5 21.6895 24.5 19.6834V5.90651L14 3.57319ZM14 9.5C15.6569 9.5 17 10.8431 17 12.5C17 13.6098 16.3974 14.5787 15.5016 15.0977L15.5 21.5H12.5L12.4998 15.0986C11.6033 14.5799 11 13.6104 11 12.5C11 10.8431 12.3431 9.5 14 9.5Z" fill="#00853C"/>
</svg>
