<svg width="32" height="32" viewBox="0 0 32 32" fill="none" xmlns="http://www.w3.org/2000/svg">
<path d="M27.6673 4.33278C28.8388 5.50435 28.8388 7.40385 27.6673 8.57542L23.4247 12.8181L19.1819 8.57542L23.4247 4.33278C24.5962 3.1612 26.4956 3.1612 27.6673 4.33278ZM29.7886 2.21146C27.4454 -0.131686 23.6464 -0.131686 21.3032 2.21146L17.0606 6.45409L16.5302 5.92428C15.9445 5.33848 14.9948 5.33848 14.4089 5.92428C13.8232 6.51006 13.8232 7.4598 14.4089 8.04559L14.9393 8.57596L5.61731 17.898C4.77971 18.7356 4.20878 19.8024 3.97646 20.964L3.45022 23.5953C3.33407 24.1759 3.04861 24.7093 2.62979 25.1281L1.15076 26.6073C0.564981 27.193 0.564981 28.1428 1.15076 28.7286L3.27208 30.8499C3.85787 31.4356 4.80761 31.4356 5.39341 30.8499L6.87244 29.3709C7.29124 28.9521 7.82464 28.6666 8.40541 28.5504L11.0366 28.0242C12.1982 27.7918 13.265 27.2209 14.1026 26.3833L23.4247 17.0613L23.9549 17.5915C24.5407 18.1773 25.4905 18.1773 26.0762 17.5915C26.662 17.0058 26.662 16.056 26.0762 15.4702L25.546 14.94L29.7886 10.6967C32.1317 8.35359 32.1317 4.5546 29.7886 2.21146ZM17.0606 10.6973L21.3032 14.94L11.9813 24.262C11.5625 24.6808 11.0291 24.9663 10.4483 25.0824L7.81706 25.6087C6.65552 25.8409 5.58872 26.412 4.75112 27.2496C5.58872 26.412 6.15965 25.3452 6.39196 24.1836L6.91822 21.5523C7.03436 20.9716 7.31983 20.4382 7.73863 20.0194L17.0606 10.6973Z" fill="#00853C"/>
</svg>
