<svg width="31" height="31" viewBox="0 0 31 31" fill="none" xmlns="http://www.w3.org/2000/svg">
<path d="M16.3375 12.8906L8.074 21.1556L5.269 19.9901L5.0185 20.2436L8.5885 22.6241L10.9705 26.1941L11.2225 25.9421L10.0585 23.1371L18.322 14.8751L24.814 24.2531L25.129 23.9411L20.7985 12.3971L27.3985 5.80006C27.5288 5.66976 27.6322 5.51506 27.7027 5.34481C27.7732 5.17456 27.8095 4.99209 27.8095 4.80781C27.8095 4.62353 27.7732 4.44106 27.7027 4.27081C27.6322 4.10056 27.5288 3.94586 27.3985 3.81556C27.2682 3.68526 27.1135 3.58189 26.9433 3.51137C26.773 3.44085 26.5905 3.40456 26.4063 3.40456C26.222 3.40456 26.0395 3.44085 25.8692 3.51137C25.699 3.58189 25.5443 3.68526 25.414 3.81556L18.814 10.4141L7.273 6.08506L6.958 6.39856L16.3375 12.8906ZM24.4225 28.6151L17.9275 19.2356L13.3675 23.7956L14.533 26.6006L10.534 30.5981L6.5665 24.6476L0.614502 20.6786L4.6135 16.6796L7.417 17.8436L11.977 13.2836L2.5975 6.79156L6.5665 2.82406L18.109 7.15156L23.4295 1.83106C23.8186 1.43255 24.2829 1.11522 24.7956 0.897481C25.3082 0.679737 25.859 0.565902 26.4159 0.562575C26.9729 0.559248 27.525 0.666494 28.0402 0.878097C28.5554 1.0897 29.0234 1.40145 29.4173 1.79529C29.8111 2.18912 30.1229 2.6572 30.3345 3.17241C30.5461 3.68761 30.6533 4.23969 30.65 4.79664C30.6467 5.3536 30.5328 5.90436 30.3151 6.417C30.0973 6.92963 29.78 7.39396 29.3815 7.78306L24.061 13.1036L28.39 24.6476L24.4225 28.6151Z" fill="#00853C"/>
</svg>
