<svg width="20" height="20" viewBox="0 0 20 20" fill="none" xmlns="http://www.w3.org/2000/svg">
<path d="M10.2032 3.33398C10.6483 3.33643 11.7619 3.3472 12.9451 3.39459L13.3646 3.41288C14.5558 3.46928 15.7461 3.56563 16.3364 3.73023C17.1238 3.95144 17.7427 4.5969 17.9519 5.41508C18.285 6.71433 18.3267 9.25015 18.3318 9.86382L18.3326 9.99098V9.9999C18.3326 9.9999 18.3326 10.003 18.3326 10.0089L18.3318 10.1361C18.3267 10.7497 18.285 13.2856 17.9519 14.5848C17.7398 15.406 17.1209 16.0515 16.3364 16.2697C15.7461 16.4342 14.5558 16.5306 13.3646 16.587L12.9451 16.6052C11.7619 16.6527 10.6483 16.6634 10.2032 16.6659L10.0079 16.6666H9.99925C9.99925 16.6666 9.99633 16.6666 9.99058 16.6666L9.79542 16.6659C8.85342 16.6607 4.91477 16.6182 3.66209 16.2697C2.87467 16.0484 2.25577 15.403 2.04656 14.5848C1.7135 13.2856 1.67187 10.7497 1.66667 10.1361V9.86382C1.67187 9.25015 1.7135 6.71433 2.04656 5.41508C2.25867 4.59387 2.87757 3.94842 3.66209 3.73023C4.91477 3.38168 8.85342 3.33917 9.79542 3.33398H10.2032ZM8.33259 7.08327V12.9166L13.3326 9.9999L8.33259 7.08327Z" fill="#F5F5FA"/>
</svg>
